<svg height='100px' width='100px'  fill="#000000" xmlns="http://www.w3.org/2000/svg" xmlns:xlink="http://www.w3.org/1999/xlink" version="1.1" x="0px" y="0px" viewBox="0 0 93.056 100" enable-background="new 0 0 93.056 100" xml:space="preserve"><path d="M66.667,47.22v0.001H34.722c-2.301,0-4.167,1.866-4.167,4.167c0,2.301,1.866,4.167,4.167,4.167h16.667  c0.768,0,1.389,0.621,1.389,1.389s-0.621,1.389-1.389,1.389H13.888c-2.301,0-4.167,1.866-4.167,4.167s1.866,4.167,4.167,4.167  h30.556c0.767,0,1.389,0.621,1.389,1.389s-0.622,1.389-1.389,1.389H11.11c-2.301,0-4.167,1.866-4.167,4.167s1.866,4.167,4.167,4.167  h33.334c0.767,0,1.389,0.621,1.389,1.389s-0.622,1.389-1.389,1.389H13.888c-2.301,0-4.167,1.866-4.167,4.167  c0,2.3,1.866,4.167,4.167,4.167h30.556c0.767,0,1.389,0.621,1.389,1.389s-0.622,1.389-1.389,1.389H20.833  c-2.301,0-4.167,1.866-4.167,4.167c0,2.3,1.866,4.166,4.167,4.166h45.833v-0.001c14.574,0,26.39-11.815,26.39-26.389  C93.056,59.036,81.241,47.22,66.667,47.22z"></path><path d="M52.778,41.666c0-1.534-2.777-5.556-2.777-5.556s-2.778,4.021-2.778,5.556c0,1.534,1.244,2.778,2.778,2.778  C51.534,44.444,52.778,43.2,52.778,41.666z"></path><path d="M47.222,33.333c0-1.534-2.778-5.556-2.778-5.556s-2.778,4.021-2.778,5.556s1.244,2.778,2.778,2.778  S47.222,34.867,47.222,33.333z"></path><path d="M58.333,33.333c0-1.534-2.778-5.556-2.778-5.556s-2.777,4.021-2.777,5.556s1.244,2.778,2.777,2.778  C57.089,36.11,58.333,34.867,58.333,33.333z"></path><path d="M58.333,25H41.667c0-7.521-4.856-8.333-6.945-8.333H0V0h34.723C44.214,0,58.333,6.658,58.333,25z"></path></svg>
